#!OML:ASF X:\für Bonn\!DataBase\2005_08_10_Bjorn_Final\c3d\bjorn.ASF
:FULLY-SPECIFIED
:DEGREES
125
root -24.2443 17.8314 13.1237 -176.871 -234.473 -190.677
lowerback 1.2444 3.11543 8.21049
upperback 6.33106 3.97893 2.5803
thorax 6.3202 2.37969 -1.6803
lowerneck -6.34886 1.36262 1.73593
upperneck 1.8528 1.89142 -5.21653
head 1.75454 0.845305 -1.89468
rclavicle -5.12864e-014 -4.77083e-015
rhumerus -13.7578 19.1755 -91.6522
rradius 100.769
rwrist -5.32458
rhand -29.8273 28.2675
rfingers 7.12502
rthumb -3.15071 -1.68894
lclavicle -5.12864e-014 -4.77083e-015
lhumerus -56.5746 -25.6582 106.015
lradius 57.1236
lwrist 16.0391
lhand -38.9143 -16.7447
lfingers 7.12502
lthumb -11.921 12.8959
rfemur -11.1885 -7.21825 22.6187
rtibia 43.015
rfoot -33.4654 6.2883
rtoes -35.5922
lfemur -40.1743 7.82509 -16.2708
ltibia 83.3907
lfoot -18.1224 0.867057
ltoes -24.3887
126
root -24.0067 17.9311 13.2742 -176.269 -234.746 -189.746
lowerback 1.25274 3.36754 7.65103
upperback 6.21185 4.34162 2.27493
thorax 6.19477 2.52981 -1.67949
lowerneck -6.12082 1.19113 1.93582
upperneck 2.11257 1.64851 -5.05814
head 1.78907 0.728068 -1.8888
rclavicle -9.14409e-015 -1.74931e-014
rhumerus -13.6234 19.6526 -91.7303
rradius 101.068
rwrist -4.63791
rhand -29.7177 28.2161
rfingers 7.12502
rthumb -3.0448 -1.74187
lclavicle -9.14409e-015 -1.74931e-014
lhumerus -57.4192 -25.5357 105.949
lradius 57.6812
lwrist 16.1223
lhand -38.757 -16.3817
lfingers 7.12502
lthumb -11.7693 13.2677
rfemur -9.18985 -7.40332 21.7603
rtibia 41.2047
rfoot -32.1361 6.79562
rtoes -35.5116
lfemur -41.458 7.49094 -17.6649
ltibia 81.7306
lfoot -18.2166 0.686901
ltoes -24.1864
127
root -23.7615 18.0394 13.4288 -175.747 -234.978 -188.878
lowerback 1.22794 3.6245 7.07379
upperback 6.13739 4.70427 2.02439
thorax 6.12802 2.68133 -1.60666
lowerneck -5.78045 0.998564 2.02825
upperneck 2.1419 1.37946 -4.89666
head 1.72579 0.601559 -1.86134
rclavicle -6.36111e-015 1.82882e-014
rhumerus -13.4667 20.1105 -91.7937
rradius 101.256
rwrist -3.88709
rhand -29.4806 27.9285
rfingers 7.12502
rthumb -2.81583 -2.03268
lclavicle -6.36111e-015 1.82882e-014
lhumerus -58.1276 -25.3534 105.872
lradius 58.1836
lwrist 15.8742
lhand -38.602 -16.0909
lfingers 7.12502
lthumb -11.6199 13.5669
rfemur -7.15064 -7.81719 20.8462
rtibia 39.3604
rfoot -30.3941 7.86532
rtoes -34.8342
lfemur -42.4543 7.14686 -18.9791
ltibia 79.7323
lfoot -18.3086 0.602018
ltoes -24.1792
128
root -23.5105 18.1529 13.586 -175.268 -235.172 -188.047
lowerback 1.18753 3.89112 6.53977
upperback 6.07624 5.0787 1.74127
thorax 6.09016 2.84348 -1.58802
lowerneck -5.38036 0.781719 2.1745
upperneck 2.04482 1.07116 -4.72488
head 1.61038 0.457808 -1.83947
rclavicle 6.20208e-014 1.82882e-014
rhumerus -13.3876 20.587 -91.9188
rradius 101.49
rwrist -3.2857
rhand -29.2234 27.7294
rfingers 7.12502
rthumb -2.56746 -2.23492
lclavicle 6.20208e-014 1.82882e-014
lhumerus -58.8076 -25.2619 105.772
lradius 58.6591
lwrist 15.7246
lhand -38.4558 -15.983
lfingers 7.12502
lthumb -11.4789 13.6827
rfemur -5.07504 -8.15434 19.9232
rtibia 37.4388
rfoot -28.0688 9.08765
rtoes -33.7298
lfemur -43.2269 6.80592 -20.236
ltibia 77.4579
lfoot -18.3021 0.621751
ltoes -24.9389
129
root -23.256 18.2649 13.7441 -174.882 -235.322 -187.365
lowerback 1.07577 4.16312 6.05751
upperback 6.02544 5.45255 1.50244
thorax 6.10307 3.0083 -1.54455
lowerneck -4.97966 0.561604 2.24199
upperneck 1.98517 0.765276 -4.49996
head 1.50632 0.314686 -1.78533
rclavicle 1.98785e-014 -3.4191e-014
rhumerus -13.4261 21.1391 -92.0429
rradius 101.843
rwrist -2.83035
rhand -28.9003 27.5465
rfingers 7.12502
rthumb -2.25541 -2.42128
lclavicle 1.98785e-014 -3.4191e-014
lhumerus -59.3977 -25.1294 105.69
lradius 59.1105
lwrist 15.5446
lhand -38.3136 -15.8647
lfingers 7.12502
lthumb -11.3417 13.8086
rfemur -3.03354 -8.3638 19.0799
rtibia 35.442
rfoot -25.1999 10.087
rtoes -33.3012
lfemur -43.8365 6.47659 -21.3529
ltibia 74.9616
lfoot -18.1064 0.665188
ltoes -25.8811
130
root -22.9981 18.3776 13.9037 -174.595 -235.458 -186.784
lowerback 0.93841 4.43594 5.63364
upperback 5.96963 5.82611 1.26524
thorax 6.12938 3.17618 -1.52813
lowerneck -4.50937 0.336469 2.29155
upperneck 2.01955 0.456259 -4.2008
head 1.42025 0.170517 -1.7035
rclavicle 2.48481e-014 4.92986e-014
rhumerus -13.5471 21.7352 -92.2462
rradius 102.332
rwrist -2.69161
rhand -28.4771 27.3272
rfingers 7.12502
rthumb -1.84674 -2.6446
lclavicle 2.48481e-014 4.92986e-014
lhumerus -59.9976 -25.0674 105.642
lradius 59.5443
lwrist 15.5301
lhand -38.2629 -15.8919
lfingers 7.12502
lthumb -11.2929 13.7841
rfemur -0.97756 -8.36046 18.3125
rtibia 33.3863
rfoot -21.7199 11.1248
rtoes -31.5656
lfemur -44.2212 6.24281 -22.3764
ltibia 72.2631
lfoot -17.7803 0.594018
ltoes -26.5247
131
root -22.7377 18.4864 14.0646 -174.38 -235.572 -186.258
lowerback 0.895922 4.70341 5.22995
upperback 5.83321 6.20043 1.02868
thorax 6.01592 3.34185 -1.53497
lowerneck -3.91055 0.115723 2.32899
upperneck 2.16567 0.15824 -3.84395
head 1.3485 0.0327486 -1.60003
rclavicle -9.95911e-014 4.77083e-015
rhumerus -13.8855 22.3906 -92.6074
rradius 102.858
rwrist -2.8116
rhand -28.0214 26.9973
rfingers 7.12502
rthumb -1.40658 -2.97782
lclavicle -9.95911e-014 4.77083e-015
lhumerus -60.7153 -24.935 105.635
lradius 59.9743
lwrist 15.5368
lhand -38.2327 -15.9352
lfingers 7.12502
lthumb -11.2637 13.7424
rfemur 1.04814 -8.17959 17.5877
rtibia 31.3565
rfoot -17.8142 11.9967
rtoes -28.5745
lfemur -44.4085 6.10074 -23.3375
ltibia 69.4229
lfoot -17.2876 0.495221
ltoes -26.4854
132
root -22.4766 18.5902 14.2251 -174.318 -235.688 -185.862
lowerback 0.876988 4.96841 4.97702
upperback 5.75905 6.57123 0.748514
thorax 5.97825 3.51822 -1.66643
lowerneck -3.43268 -0.0876513 2.44491
upperneck 2.27486 -0.121547 -3.48543
head 1.28861 -0.0965641 -1.50919
rclavicle 4.96962e-015 -2.66371e-014
rhumerus -14.1417 22.9923 -93.0424
rradius 103.239
rwrist -3.03042
rhand -27.6026 26.8068
rfingers 7.12502
rthumb -1.00212 -3.17059
lclavicle 4.96962e-015 -2.66371e-014
lhumerus -61.3366 -25.0219 105.563
lradius 60.4132
lwrist 15.7076
lhand -38.3035 -15.9991
lfingers 7.12502
lthumb -11.332 13.6748
rfemur 3.02713 -7.96332 16.9359
rtibia 29.4184
rfoot -13.7056 12.3973
rtoes -24.8847
lfemur -44.3884 6.02209 -24.1884
ltibia 66.4685
lfoot -16.6986 0.123402
ltoes -26.0734
133
root -22.2123 18.6879 14.3867 -174.301 -235.722 -185.509
lowerback 0.823558 5.24694 4.71916
upperback 5.72063 6.95731 0.498798
thorax 5.99575 3.70288 -1.7566
lowerneck -3.02667 -0.269139 2.52091
upperneck 2.3908 -0.368198 -3.15751
head 1.24555 -0.210961 -1.42053
rclavicle -2.62396e-014 -4.65156e-014
rhumerus -14.4671 23.6627 -93.4785
rradius 103.539
rwrist -3.23959
rhand -27.33 26.6771
rfingers 7.12502
rthumb -0.738856 -3.3014
lclavicle -2.62396e-014 -4.65156e-014
lhumerus -61.8723 -25.1472 105.562
lradius 60.8119
lwrist 16.117
lhand -38.3872 -16.0928
lfingers 7.12502
lthumb -11.4128 13.5766
rfemur 4.86212 -7.74907 16.2619
rtibia 27.6686
rfoot -9.44625 12.3516
rtoes -21.0359
lfemur -44.2012 6.03789 -25.0019
ltibia 63.4282
lfoot -16.0434 -0.306564
ltoes -26.1341
134
root -21.9466 18.7785 14.5491 -174.307 -235.742 -185.255
lowerback 0.727077 5.54398 4.53991
upperback 5.61933 7.36564 0.223296
thorax 5.98733 3.90126 -1.91304
lowerneck -2.4645 -0.462989 2.63344
upperneck 2.4097 -0.630096 -2.8075
head 1.1453 -0.331394 -1.32898
rclavicle 1.14301e-013 -2.42517e-014
rhumerus -14.9845 24.2425 -94.0266
rradius 103.645
rwrist -3.31016
rhand -27.2878 26.5635
rfingers 7.12502
rthumb -0.698097 -3.41514
lclavicle 1.14301e-013 -2.42517e-014
lhumerus -62.4015 -25.3706 105.594
lradius 61.1013
lwrist 16.6023
lhand -38.571 -16.2367
lfingers 7.12502
lthumb -11.5899 13.4228
rfemur 6.39652 -7.62057 15.6296
rtibia 26.287
rfoot -5.04487 11.931
rtoes -16.8151
lfemur -43.9775 6.11118 -25.7412
ltibia 60.4196
lfoot -15.2645 -0.923652
ltoes -25.741
135
root -21.6778 18.8601 14.7128 -174.138 -235.736 -184.981
lowerback 0.403525 5.83294 4.31092
upperback 5.50353 7.75408 -0.054761
thorax 6.08631 4.08726 -2.02085
lowerneck -2.00419 -0.63408 2.76867
upperneck 2.49451 -0.858872 -2.5161
head 1.08569 -0.437053 -1.26026
rclavicle 3.18055e-015 -2.46493e-014
rhumerus -15.6293 24.8479 -94.6286
rradius 103.647
rwrist -3.26739
rhand -27.2564 26.4106
rfingers 7.12502
rthumb -0.667737 -3.56813
lclavicle 3.18055e-015 -2.46493e-014
lhumerus -62.7903 -25.5279 105.547
lradius 61.3896
lwrist 17.1452
lhand -38.7669 -16.4856
lfingers 7.12502
lthumb -11.7789 13.1631
rfemur 7.5849 -7.66289 14.9426
rtibia 25.1562
rfoot -0.697565 11.2858
rtoes -12.9308
lfemur -43.8515 6.17442 -26.4762
ltibia 57.4433
lfoot -14.1586 -1.70985
ltoes -23.9482
136
root -21.4149 18.9034 14.8762 -174.56 -235.785 -185.326
lowerback 0.152103 6.11939 4.47191
upperback 5.38553 8.13093 -0.262921
thorax 6.19027 4.28527 -2.27148
lowerneck -1.51184 -0.828225 2.92424
upperneck 2.53487 -1.11675 -2.19918
head 1.00665 -0.556953 -1.18607
rclavicle -4.56211e-014 1.39149e-014
rhumerus -16.4291 25.3632 -95.3323
rradius 103.615
rwrist -3.23856
rhand -27.0993 26.1565
rfingers 7.12502
rthumb -0.516026 -3.82258
lclavicle -4.56211e-014 1.39149e-014
lhumerus -63.2519 -25.6862 105.472
lradius 61.7301
lwrist 17.657
lhand -39.0991 -16.9381
lfingers 7.12502
lthumb -12.0992 12.6921
rfemur 8.68973 -7.93558 14.573
rtibia 24.3262
rfoot 3.33097 10.7883
rtoes -11.4912
lfemur -43.7655 6.26501 -26.7997
ltibia 54.6982
lfoot -12.865 -2.63812
ltoes -21.6067
